<?xml version="1.0" encoding="utf-8" ?>
<svg xmlns="http://www.w3.org/2000/svg" xmlns:xlink="http://www.w3.org/1999/xlink" width="1024" height="1024">
	<path fill="#0D3B56" d="M658.519 242.392C657.592 232.948 657.489 200.153 659.024 191.606C659.597 188.418 660.669 185.094 662.776 182.578C667.822 176.554 673.418 173.823 681.226 173.262C689.04 172.701 697.059 173.181 704.891 173.274Q721.123 173.409 737.354 173.223L818.234 173.095C832.854 173.097 847.541 172.759 862.152 173.063C866.376 176.481 870.099 180.66 873.905 184.534L895.982 207.256L931.258 243.051C938.068 250.003 945.29 256.818 951.375 264.414C951.512 264.585 951.665 264.743 951.804 264.913C953.575 267.086 953.318 273.542 953.358 276.409Q953.864 370.656 952.908 464.899L953.3 518.13C953.394 527.613 954.133 538.949 952.894 548.277C952.018 554.871 947.912 561.102 942.5 564.932C939.215 567.257 934.786 567.949 930.839 568.148C923.587 568.514 916.181 568.135 908.916 568.086L874.758 568.133L752.863 568.12L700.911 568.133C694.58 568.163 683.642 569.232 677.764 568.023C671.424 566.72 665.795 563.403 662.329 557.835C657.372 549.872 657.411 535.66 658.329 526.42C658.181 526.283 658.035 526.143 657.886 526.007C653.523 522.037 648.293 518.769 643.459 515.4L620.958 499.765Q585.431 475.432 550.263 450.583C542.211 445.005 534.322 439.252 526.422 433.465C523.274 431.158 519.661 429.049 516.936 426.258C514.964 424.237 513.285 421.746 513.164 418.836C513.106 417.436 513.468 415.754 514.598 414.829C515.882 413.778 517.541 413.77 519.067 414.152C521.493 414.758 523.916 415.98 526.086 417.213C535.406 422.505 544.379 428.584 553.491 434.235L601.942 464.129Q619.452 474.915 636.809 485.945C643.992 490.481 651.718 494.854 658.268 500.266Q657.971 466.221 658.1 432.177C658.114 419.914 657.461 407.19 658.266 394.977C652.033 395.072 644.516 395.928 639.489 391.473C636.029 388.407 635.095 385.114 634.886 380.619C634.216 366.228 634.662 351.502 634.742 337.089C634.78 330.319 634.045 322.882 635.114 316.195C635.532 313.583 636.339 311.487 638.174 309.546C643.38 304.039 651.612 304.859 658.541 304.757C657.753 292.392 658.057 279.908 658.007 267.521C633.958 283.599 609.276 298.706 584.861 314.216Q566.326 326.126 547.406 337.417C540.669 341.479 533.877 345.922 526.78 349.322C524.68 350.329 522.432 351.408 520.046 350.921Q519.732 350.859 519.426 350.766Q519.12 350.673 518.825 350.55Q518.529 350.427 518.248 350.275Q517.967 350.123 517.702 349.943Q517.437 349.763 517.192 349.558Q516.946 349.353 516.723 349.124Q516.499 348.895 516.3 348.645Q516.1 348.395 515.927 348.126C515.079 346.794 514.727 344.982 515.14 343.438C515.705 341.324 518.088 339.583 519.736 338.27C528.726 331.111 538.551 324.692 547.934 318.054Q579.079 296.059 610.65 274.681L639.173 255.16C645.447 250.824 651.787 245.967 658.519 242.392ZM676.052 410.825L676.15 502.251L676.091 528.276C676.076 533.227 675.706 538.561 676.376 543.473C676.608 545.172 677.436 546.957 678.643 548.185C679.815 549.377 681.089 549.708 682.699 549.904C691.902 551.02 702.13 550.152 711.457 550.148L769.875 550.108L874.508 550.09L907.718 550.086C914.126 550.084 920.65 550.353 927.039 549.918C929.134 549.775 931.933 549.786 933.478 548.23C934.835 546.864 935.187 544.652 935.331 542.817C935.916 535.335 935.251 527.324 935.265 519.77L935.242 464.652L935.048 279.86L890.487 279.909C882.496 279.921 873.254 280.825 865.424 279.184C861.149 278.288 857.119 276.365 854.058 273.202C851.043 270.085 849.136 265.999 848.399 261.744C847.042 253.916 847.937 244.891 847.97 236.885L848.007 191.503L708.744 191.256C703.039 191.332 681.879 190.551 678.238 192.786C676.887 195.313 676.386 197.744 676.133 200.587C675.275 210.199 675.997 220.516 676.016 230.215L676.088 288.753L762.744 288.779L787.84 288.784C792.751 288.787 797.95 288.447 802.81 289.191C805.474 289.599 807.877 291.333 809.689 293.252C811.753 295.439 812.956 297.421 813.484 300.385C814.508 306.13 814.029 312.422 814.021 318.263L813.945 346.569Q813.933 361.666 814.072 376.76C814.111 382.086 814.43 387.574 814.09 392.884C813.768 397.928 812.217 402.426 808.374 405.84Q807.839 406.31 807.272 406.741Q806.705 407.172 806.109 407.561Q805.513 407.951 804.891 408.297Q804.268 408.644 803.623 408.945Q802.978 409.247 802.313 409.502Q801.648 409.757 800.967 409.964Q800.285 410.171 799.591 410.33Q798.897 410.488 798.193 410.597C792.711 411.441 786.858 411.069 781.319 411.051L754.867 411.009C728.67 411.012 702.216 411.826 676.052 410.825ZM924.901 262.974C904.123 243.112 884.945 221.537 864.029 201.819L864.022 235.163C863.983 241.363 863.302 248.189 864.19 254.288C864.528 256.609 865.361 258.842 867.081 260.494C868.724 262.073 870.889 262.745 873.112 263.005C879.076 263.7 885.747 263.055 891.781 262.986Q908.341 262.821 924.901 262.974Z"/>
	<path fill="#E8484A" d="M658.541 304.757L750.641 304.842C763.071 304.84 786.533 303.499 797.613 306.016C798.479 307.302 798.511 308.501 798.566 310.023C799.187 327.26 798.52 344.758 798.555 362.025C798.569 368.571 799.465 385.962 798.316 391.484C798.057 392.729 797.409 393.457 796.307 394.082C794.81 394.931 793.09 394.931 791.414 395.002C775.669 395.672 759.636 395.036 743.868 395.029L658.266 394.977C652.033 395.072 644.516 395.928 639.489 391.473C636.029 388.407 635.095 385.114 634.886 380.619C634.216 366.228 634.662 351.502 634.742 337.089C634.78 330.319 634.045 322.882 635.114 316.195C635.532 313.583 636.339 311.487 638.174 309.546C643.38 304.039 651.612 304.859 658.541 304.757Z"/>
	<path fill="#FEFEFE" d="M706.8 324.714C710.471 324.588 714.158 324.435 717.809 324.926C724.259 325.793 730.249 328.522 734.211 333.852C738.769 339.984 739.716 348.097 738.549 355.487C737.347 363.101 733.586 368.685 727.401 373.116C718.447 377.933 708.324 376.946 698.541 376.419L698.525 325.305C701.273 325.048 704.046 324.908 706.8 324.714Z"/>
	<path fill="#E8484A" d="M710.308 333.177C715.616 333.249 720.075 333.489 724.04 337.577C727.603 341.251 728.597 346.227 728.404 351.191C728.19 356.713 726.57 361.662 722.49 365.488C717.946 368.059 713.686 368.231 708.614 368.241C708.591 361.624 707.551 338.788 708.989 333.762L710.308 333.177Z"/>
	<path fill="#FEFEFE" d="M663.341 325.217C670.467 324.632 679.096 324.531 684.93 329.287C688.329 332.057 690.187 336.022 690.417 340.376C690.649 344.775 689.272 349.188 686.233 352.429C680.936 358.077 673.805 358.383 666.603 358.495L666.65 376.433L656.595 376.42C656.569 359.555 656.301 342.649 656.697 325.789C658.892 325.504 661.134 325.399 663.341 325.217Z"/>
	<path fill="#E8484A" d="M666.736 333.052C670.562 333.032 673.796 332.968 677.09 335.258C678.717 336.389 680.005 338.033 680.278 340.039C680.696 343.119 679.298 345.607 677.497 347.958C673.769 350.012 670.785 350.055 666.649 350.072Q666.638 341.562 666.736 333.052Z"/>
	<path fill="#FEFEFE" d="M747.458 325.02L775.362 325.009L775.446 333.772L757.711 333.751L757.703 346.59L773.878 346.579C773.939 349.028 774.579 353.374 773.445 355.445L772.125 355.647L757.729 355.636Q757.562 365.997 757.839 376.356L747.5 376.193L747.458 325.02Z"/>
	<path fill="#517C98" d="M703.319 429.646C719.876 428.895 736.782 429.556 753.369 429.553L847.275 429.561Q865.284 429.65 883.292 429.499C890.112 429.452 898.408 428.472 905.076 429.873C907.274 430.335 910.197 431.503 911.216 433.695C911.972 435.319 911.279 437.152 910.587 438.659C909.742 440.502 908.711 440.952 906.948 441.652C889.96 442.523 872.709 441.928 855.687 441.923L763.897 441.833L723.771 442.03C717.49 442.066 710.207 442.835 704.072 441.745C702.189 441.41 700.553 440.559 699.474 438.937C698.56 437.561 698.518 435.675 698.978 434.138C699.723 431.65 701.117 430.751 703.319 429.646Z"/>
	<path fill="#517C98" d="M802.087 463.755C825.884 464.084 849.746 463.793 873.55 463.816C882.609 463.824 893.306 462.97 902.108 463.754C904.462 463.964 906.935 464.645 908.74 466.242C909.946 467.309 910.871 468.738 910.853 470.405C910.842 471.555 910.385 472.534 909.598 473.354C908.327 474.677 906.608 475.336 904.821 475.604C896.596 476.838 884.139 475.881 875.554 475.864L813.75 475.837L743.458 476.042C731.289 476.072 718.872 476.584 706.722 475.979C705.065 475.897 702.731 475.818 701.3 474.951C700.047 474.192 699.249 473.089 699.006 471.631C698.762 470.169 698.698 467.444 699.694 466.267C701.063 464.649 703.337 464.167 705.346 463.962C715.315 462.941 726.176 463.842 736.24 463.867Q769.164 463.992 802.087 463.755Z"/>
	<path fill="#517C98" d="M703.026 497.267C715.442 496.907 727.94 497.245 740.367 497.239L809.06 497.112L871.693 497.072C882.297 497.069 893.027 496.724 903.619 497.101C905.613 497.173 907.536 497.475 908.831 499.198C910.442 501.339 910.051 503.907 909.521 506.335C908.963 507.051 908.32 507.96 907.503 508.406C904.021 510.305 865.865 509.035 858.522 509.03L742.482 509.029L719.515 509.026C714.433 509.062 708.151 509.891 703.256 508.774C701.624 508.402 700.3 507.448 699.501 505.968C698.643 504.378 698.646 502.348 699.291 500.684C700.034 498.77 701.198 498.02 703.026 497.267Z"/>
	<path fill="#517C98" d="M703.948 248.589L770.391 248.577C781.528 248.55 792.923 247.926 804.033 248.523C805.858 248.621 808.382 248.718 809.946 249.769C811.251 250.646 811.742 252.375 811.943 253.847C812.143 255.318 812.142 257.341 811.081 258.499C808.888 260.891 805.244 260.382 802.313 260.35C778.003 260.042 753.661 260.206 729.346 260.162C722.063 260.149 714.705 260.699 707.436 260.479C705.709 260.427 703.582 260.377 701.987 259.652C700.434 258.947 699.563 257.801 699.048 256.206C698.534 254.619 698.536 253.028 699.441 251.561C700.514 249.822 702.083 249.169 703.948 248.589Z"/>
	<path fill="#517C98" d="M708.106 218.245L776.655 218.175C785.742 218.178 797.633 217.474 806.336 218.032C807.73 218.122 809.031 218.529 810.118 219.43C811.325 220.432 812.068 221.957 812.16 223.52C812.257 225.167 811.718 226.833 810.509 227.986C808.303 230.089 804.682 229.529 801.875 229.495L738.262 229.411C727.816 229.44 716.664 230.429 706.299 229.444C704.169 229.242 701.946 228.73 700.18 227.461C699.166 226.732 698.336 225.689 698.237 224.4C698.12 222.872 699.053 221.04 700.094 219.945C702.085 217.849 705.462 218.28 708.106 218.245Z"/>
	<path fill="#517C98" d="M837.878 383.632C838.186 383.622 838.495 383.607 838.803 383.601C852.584 383.309 866.431 383.596 880.22 383.587C888.191 383.581 896.937 382.859 904.825 383.811C906.545 384.019 908.236 384.477 909.402 385.859C910.283 386.903 910.52 388.267 910.343 389.587C909.944 392.559 908.64 394.004 906.311 395.735C893.066 396.393 879.674 395.762 866.409 395.828C858.612 395.867 846.954 397.053 839.6 395.735C837.448 395.35 835.219 394.433 834.048 392.477C833.118 390.924 833.024 388.8 833.655 387.116C834.387 385.163 836.133 384.443 837.878 383.632Z"/>
	<path fill="#517C98" d="M841.818 343.127C849.166 342.712 901.165 342.134 904.811 343.21C906.59 343.735 908.095 345.139 908.855 346.813C909.629 348.519 909.695 350.498 908.888 352.204C908.043 353.992 906.768 354.753 904.989 355.432C893.926 356.652 882.059 355.817 870.915 355.845C861.793 355.868 851.46 356.827 842.442 355.593C840.548 355.334 839.512 354.59 838.454 353.031C837.475 351.587 836.964 349.955 837.336 348.22C837.876 345.693 839.743 344.4 841.818 343.127Z"/>
	<path fill="#517C98" d="M841.287 314.08C850.437 313.316 859.975 313.826 869.165 313.816C880.452 313.804 891.917 313.381 903.186 313.861C905.578 313.963 908.158 314.016 909.736 316.13C910.676 317.389 910.737 319.199 910.479 320.694C910.051 323.171 908.972 324.268 906.953 325.639C896.636 326.879 885.32 325.99 874.895 326.008C864.6 326.026 853.369 326.92 843.2 325.746C841.789 325.583 840.349 325.306 839.281 324.293C838.075 323.15 837.838 321.545 837.978 319.969C838.229 317.123 839.115 315.86 841.287 314.08Z"/>
	<path fill="#0D3B56" d="M490.795 532.503C492.379 538.403 496.67 544.685 494.666 551.008C491.838 559.93 467.721 572.92 459.018 577.292C402.973 605.441 345.303 610.868 285.662 591.202C272.849 586.977 260.307 581.286 248.411 574.94C209.056 553.944 182.597 526.687 156.093 491.27C139.746 469.426 124.365 446.995 105.442 427.21C96.4162 417.773 86.9068 408.667 76.6022 400.626C70.7791 396.083 64.1124 392.126 58.6624 387.193C56.6942 385.411 54.8797 383.349 53.7347 380.934C52.1996 377.696 51.8546 373.041 53.1248 369.669C54.8342 365.131 81.6568 334.164 87.1558 327.195C136.368 264.833 175.273 199.426 250.028 163.796C309.106 135.638 382.72 131.87 444.325 153.72C492.269 170.725 526.634 197.513 559.466 235.83C564.861 242.126 574.082 251.518 577.415 258.987C578.457 261.323 578.535 263.164 577.523 265.511C573.591 274.639 536.207 312.319 527.04 315.48C522.275 317.123 515.306 317.675 510.792 315.082C505.871 312.255 497.287 301.035 492.833 296.37Q490.125 293.509 487.29 290.774Q484.455 288.039 481.498 285.436Q478.541 282.833 475.468 280.367Q472.396 277.902 469.215 275.578Q466.033 273.255 462.749 271.079Q459.465 268.903 456.086 266.879Q452.706 264.855 449.238 262.987Q445.77 261.118 442.22 259.41C373.07 226.715 294.39 249.579 233.104 288.473C215.429 299.69 199.185 312.938 182.244 325.191C156.199 344.03 128.239 359.586 97.9033 370.331C105.626 370.088 121.748 369.035 128.759 370.563C129.069 370.651 129.378 370.748 129.691 370.827C134.29 371.992 141.108 369.392 145.051 371.413C144.484 371.839 143.955 371.998 143.812 372.748C143.593 373.902 144.095 375.612 144.879 376.496C145.549 377.252 146.566 377.479 147.479 377.793L150.587 378.883C147.294 378.89 136.859 377.748 134.661 379.539C125.026 379.921 102.226 380.977 93.6663 379.283C104.598 383.744 115.316 388.39 125.605 394.21C154.987 410.831 181.499 432.565 208.426 452.788C253.985 487.004 304.781 516.734 363.289 517.972C388.268 518.501 412.139 514.797 435.274 505.08Q439.037 503.5 442.717 501.738Q446.398 499.975 449.989 498.036Q453.579 496.096 457.071 493.983Q460.562 491.87 463.946 489.589Q467.33 487.308 470.598 484.864Q473.867 482.421 477.012 479.821Q480.157 477.22 483.172 474.47Q486.186 471.719 489.063 468.824C493.425 464.436 500.304 455.21 504.889 452.186C508.056 450.098 511.912 449.403 515.471 450.937C518.203 452.115 520.955 454.557 522.003 457.388C523.156 460.502 522.506 464.212 521.033 467.108C518.911 471.279 515.022 474.575 511.71 477.787C505.709 483.609 494.817 493.879 491.295 501.195C488.651 506.686 487.902 516.262 488.73 522.167C489.193 525.7 489.902 529.054 490.795 532.503Z"/>
	<path fill="#0A6089" d="M420.42 569.502C433.214 563.98 445.484 556.154 456.651 547.862C462.487 543.529 468.349 538.958 473.74 534.086C477.749 530.462 481.49 526.251 485.829 523.041C486.802 522.321 487.545 522.233 488.73 522.167C489.193 525.7 489.902 529.054 490.795 532.503C486.003 537.649 479.029 542.047 473.143 545.951C441.525 566.917 402.709 581.419 364.549 583.079C363.711 577.645 363.511 572.129 363.405 566.641C367.992 561.352 373.699 556.952 378.009 551.481L378.151 538.924C386.473 538.453 394.683 537.683 402.965 536.733C402.882 538.894 402.784 541.063 402.829 543.225C403.081 555.472 412.273 561.751 420.42 569.502Z"/>
	<path fill="#3C9DCB" d="M85.8715 355.651C118.813 319.901 145.309 278.975 177.766 242.887C222.194 193.488 281.146 162.997 347.964 160.186C363.103 159.55 378.53 159.749 393.557 161.829C438.245 168.016 483.535 189.081 516.682 219.721C530.549 232.538 543.617 247.907 554.093 263.592C547.687 270.436 541.172 277.217 534.96 284.237C530.717 289.032 526.769 294.11 522.473 298.846C503.061 274.837 480.706 255.707 453.343 241.306C450.967 240.376 448.626 239.477 446.366 238.282C439.91 235.468 433.322 232.546 426.528 230.657C423.994 229.64 421.199 229.051 418.563 228.328C412.565 226.326 406.054 225.339 399.826 224.265C397.017 223.88 394.232 223.457 391.445 222.941C322.544 214.569 246.832 248.446 193.447 289.649C170.187 307.601 148.738 329.495 121.87 342.154L121.314 342.411C149.651 319.124 170.819 289.914 195.803 263.414C198.939 264.65 202.128 265.406 205.51 264.863C208.884 264.321 211.738 262.453 213.624 259.612C216.656 255.046 216.105 250.438 215.147 245.385C243.154 222.951 267.319 206.2 302.418 196.395C306.172 195.524 309.398 199.878 312.642 201.697C315.383 203.234 318.557 203.777 321.599 202.864C325.445 201.709 329.372 198.455 331.243 194.908Q331.544 194.343 331.787 193.751Q332.029 193.159 332.21 192.545Q332.391 191.931 332.509 191.302Q332.626 190.673 332.679 190.035Q332.732 189.398 332.719 188.758Q332.707 188.118 332.63 187.483Q332.552 186.848 332.411 186.224Q332.269 185.599 332.065 184.993C330.795 181.146 327.832 177.886 324.218 176.092C320.795 174.394 316.786 174.055 313.204 175.476C308.321 177.411 306.118 181.506 304.289 186.101Q299.547 187.227 294.873 188.607C276.558 192.252 246.407 209.283 231.095 220.472C223.438 226.068 216.342 232.669 208.591 238.052C203.72 237.061 199.409 236.596 194.942 239.379C191.609 241.456 189.504 244.855 188.778 248.68C188.235 251.536 188.709 254.172 189.246 256.982C177.408 268.541 166.991 281.559 156.31 294.175C140.745 312.56 123.682 330.859 103.858 344.742C98.1337 348.751 91.9403 352.195 85.8715 355.651Z"/>
	<path fill="#0A6089" d="M408.917 176.306C411.713 176.571 414.319 176.956 417.048 177.631C417.279 183.143 417.582 188.661 417.55 194.179C411.884 200.041 405.274 204.859 399.481 210.569C399.564 215.12 399.503 219.726 399.826 224.265C397.017 223.88 394.232 223.457 391.445 222.941C391.308 217.806 390.819 212.661 391.062 207.527C394.714 200.955 403.106 194.983 409.009 190.446L408.917 176.306Z"/>
	<path fill="#0A6089" d="M435.014 185.014C437.837 185.977 440.736 186.847 443.471 188.039C443.65 195.096 444.014 202.203 443.979 209.261C438.524 214.574 432.527 219.285 427.062 224.56L426.528 230.657C423.994 229.64 421.199 229.051 418.563 228.328C419.465 225.854 419.048 222.474 419.037 219.842C424.073 214.65 429.882 210.336 435.004 205.271C434.985 198.527 434.842 191.755 435.014 185.014Z"/>
	<path fill="#0A6089" d="M461.98 197.031C465.222 199.181 467.989 201.759 470.838 204.392C470.978 210.405 471.205 216.56 470.701 222.558C466.854 226.145 456.169 233.68 454.11 237.704C453.535 238.828 453.454 240.069 453.343 241.306C450.967 240.376 448.626 239.477 446.366 238.282C446.536 236.101 446.641 233.93 447.133 231.793C451.691 226.86 456.945 222.675 461.968 218.232L461.98 197.031Z"/>
	<path fill="#0D3B56" d="M367.812 170.812Q368.245 170.733 368.682 170.682Q369.119 170.632 369.558 170.61Q369.998 170.588 370.438 170.596Q370.878 170.603 371.316 170.64Q371.755 170.676 372.19 170.741Q372.625 170.807 373.055 170.901Q373.485 170.995 373.907 171.117Q374.33 171.239 374.744 171.388Q375.157 171.538 375.56 171.715Q375.963 171.891 376.354 172.094Q376.744 172.297 377.121 172.525Q377.497 172.753 377.857 173.006Q378.217 173.258 378.56 173.534Q378.903 173.81 379.227 174.107Q379.551 174.405 379.855 174.724Q380.158 175.042 380.44 175.38Q380.722 175.718 380.981 176.073Q381.24 176.429 381.475 176.801Q381.71 177.173 381.92 177.56Q382.13 177.946 382.314 178.346Q382.498 178.746 382.655 179.157Q382.812 179.568 382.942 179.988Q383.071 180.408 383.173 180.836Q383.275 181.264 383.348 181.698Q383.421 182.132 383.466 182.57Q383.51 183.008 383.526 183.447Q383.541 183.887 383.527 184.327Q383.514 184.766 383.471 185.204Q383.429 185.642 383.357 186.076Q383.286 186.511 383.186 186.939Q383.086 187.367 382.958 187.788Q382.83 188.209 382.675 188.621Q382.52 189.033 382.337 189.433Q382.155 189.834 381.947 190.221Q381.738 190.609 381.505 190.982Q381.272 191.355 381.014 191.711Q380.757 192.068 380.476 192.407Q380.196 192.746 379.893 193.066Q379.591 193.386 379.268 193.685Q378.946 193.984 378.604 194.261Q378.262 194.538 377.903 194.792Q377.544 195.046 377.168 195.276Q376.793 195.506 376.404 195.71Q376.014 195.915 375.612 196.093Q375.209 196.271 374.796 196.423Q374.383 196.574 373.961 196.698Q373.539 196.822 373.109 196.917Q372.68 197.013 372.245 197.08Q371.925 197.129 371.602 197.163Q371.28 197.197 370.957 197.215Q370.633 197.233 370.309 197.235Q369.985 197.238 369.661 197.224Q369.337 197.211 369.015 197.182Q368.692 197.152 368.371 197.108Q368.05 197.063 367.732 197.002Q367.413 196.942 367.098 196.866Q366.783 196.79 366.472 196.699Q366.161 196.608 365.855 196.502Q365.549 196.396 365.248 196.275Q364.947 196.155 364.653 196.019Q364.358 195.884 364.071 195.735Q363.783 195.585 363.503 195.422Q363.223 195.259 362.952 195.082Q362.68 194.905 362.417 194.716Q362.154 194.526 361.901 194.324Q361.648 194.122 361.405 193.907Q361.162 193.693 360.93 193.467Q360.697 193.241 360.476 193.004Q360.255 192.767 360.046 192.52Q359.836 192.273 359.639 192.015Q359.442 191.758 359.258 191.492Q359.073 191.225 358.902 190.95Q358.731 190.675 358.574 190.391Q358.416 190.108 358.272 189.818Q358.129 189.527 358 189.23Q357.87 188.933 357.756 188.63Q357.641 188.327 357.541 188.019Q357.441 187.71 357.356 187.397Q357.272 187.085 357.202 186.768Q357.133 186.452 357.079 186.132Q357.025 185.812 356.987 185.491Q356.948 185.169 356.926 184.846Q356.903 184.522 356.896 184.198Q356.889 183.874 356.898 183.55Q356.907 183.226 356.932 182.903Q356.956 182.58 356.996 182.258Q357.037 181.937 357.093 181.618Q357.148 181.298 357.22 180.982Q357.291 180.666 357.378 180.354Q357.464 180.042 357.566 179.734Q357.668 179.426 357.784 179.124Q357.901 178.821 358.032 178.525Q358.163 178.229 358.309 177.939Q358.454 177.649 358.613 177.367Q358.772 177.085 358.945 176.811Q359.118 176.537 359.304 176.271Q359.49 176.006 359.689 175.75Q359.887 175.494 360.098 175.247Q360.309 175.001 360.532 174.766Q360.754 174.53 360.988 174.306Q361.222 174.081 361.466 173.869Q361.711 173.656 361.965 173.455Q362.219 173.254 362.483 173.066Q362.747 172.878 363.02 172.703Q363.293 172.528 363.574 172.367Q363.855 172.205 364.143 172.057Q364.432 171.91 364.727 171.776Q365.022 171.643 365.324 171.524Q365.625 171.405 365.932 171.301Q366.239 171.196 366.551 171.107Q366.862 171.018 367.178 170.944Q367.493 170.87 367.812 170.812Z"/>
	<path fill="#0A6089" d="M528.291 259.037C529.713 259.01 531.014 259.169 532.335 259.717C534.454 260.596 536.152 262.198 536.948 264.367C537.853 266.836 537.472 269.589 536.25 271.876C534.634 274.9 532.347 276.113 529.154 276.982C527.658 276.83 526.064 276.57 524.697 275.912C522.667 274.934 520.982 273.162 520.334 270.981C519.637 268.636 520.012 266.242 521.193 264.122C522.793 261.249 525.261 259.979 528.291 259.037Z"/>
	<path fill="#0A6089" d="M258.893 222.542C260.221 222.668 261.578 222.927 262.788 223.512C265.125 224.644 267.045 226.644 267.852 229.137C268.556 231.31 268.367 233.745 267.221 235.737C265.769 238.262 263.382 239.204 260.722 239.99C258.997 239.919 257.098 239.488 255.575 238.663C253.507 237.542 251.914 235.657 251.302 233.367Q251.192 232.963 251.124 232.551Q251.056 232.138 251.03 231.721Q251.004 231.303 251.021 230.885Q251.038 230.467 251.097 230.053Q251.157 229.639 251.258 229.234Q251.359 228.828 251.501 228.434Q251.643 228.041 251.825 227.664Q252.006 227.287 252.225 226.931C253.824 224.286 256.035 223.349 258.893 222.542Z"/>
	<path fill="#0A6089" d="M489.476 233.529C490.426 233.445 491.358 233.381 492.309 233.483C494.601 233.73 497.229 235.007 498.488 237.005C499.384 238.427 499.555 240.169 499.243 241.79C498.635 244.948 496.272 246.608 493.739 248.273C492.142 248.743 490.7 249.13 489.036 248.751C487.198 248.333 485.801 247.297 484.835 245.685C483.837 244.02 483.874 241.644 484.329 239.826C485.086 236.797 486.926 235.136 489.476 233.529Z"/>
	<path fill="#0A6089" d="M132.397 425.942C136.721 427.467 142.144 432.505 145.944 435.253C158.321 444.204 170.543 453.392 183.016 462.207C211.946 482.654 240.539 502.299 272.857 517.132L272.805 524.336C267.898 529.994 262.03 534.77 256.81 540.136C256.233 545.387 256.498 550.847 256.475 556.129C249.921 553.397 243.504 548.965 237.586 545.054C213.029 528.825 191.542 506.647 173.845 483.254C166.286 473.261 159.477 462.845 152.235 452.64C145.828 443.613 138.925 434.888 132.397 425.942Z"/>
	<path fill="#0D3B56" d="M230.469 511.019C231.923 510.99 233.56 510.885 234.991 511.171C237.429 511.658 239.872 513.591 241.078 515.736C242.024 517.417 242.35 519.336 241.76 521.196C240.832 524.115 238.488 525.619 235.872 526.881C234.355 527.2 232.803 527.444 231.268 527.119C229.029 526.645 226.947 525.36 225.727 523.393C224.533 521.468 224.282 519.214 224.919 517.047C225.78 514.118 227.921 512.453 230.469 511.019Z"/>
	<path fill="#0A6089" d="M281 520.6C288.89 523.155 296.732 526.618 304.563 529.448C304.745 533.451 304.959 537.359 304.409 541.346C299.66 546.547 293.757 550.655 288.822 555.698C285.447 559.147 284.049 560.654 284.113 565.625C284.117 566.7 283.982 567.631 283.771 568.684C280.45 569.082 268.031 562.247 264.703 560.402C264.787 555.137 264.594 549.857 264.488 544.592C269.311 538.679 275.517 533.475 281.031 528.185L281 520.6Z"/>
	<path fill="#0A6089" d="M313.305 532.229C321.311 534.25 329.545 535.584 337.662 537.094C337.398 540.287 336.969 543.282 336.201 546.393C332.298 550.639 327.475 554.452 323.265 558.443Q323.502 569.151 323.929 579.853L317.128 578.616C308.668 576.795 300.354 574.448 292.022 572.124C292.032 569.434 292.127 566.737 292.184 564.048C298.741 557.501 306.082 551.523 312.969 545.309Q312.995 538.765 313.305 532.229Z"/>
	<path fill="#0A6089" d="M347.023 538.012C354.476 539.181 362.459 538.983 369.991 539.097C370.033 542.342 369.964 545.595 369.943 548.84C365.347 553.72 359.288 557.757 355.457 563.263C355.509 568.661 356.891 577.821 355.835 582.677L355.055 583.026Q343.587 583.039 332.213 581.577C331.885 575.326 331.707 569.032 330.976 562.813C335.855 557.341 342.231 553.259 346.692 547.41C346.97 544.31 346.935 541.125 347.023 538.012Z"/>
	<path fill="#0A6089" d="M423.977 536.15C425.413 536.075 426.677 536.273 427.983 536.876C430.071 537.839 431.756 539.437 432.463 541.669Q432.586 542.055 432.667 542.452Q432.747 542.849 432.784 543.253Q432.821 543.657 432.814 544.062Q432.807 544.467 432.756 544.869Q432.705 545.271 432.61 545.666Q432.516 546.06 432.379 546.441Q432.242 546.823 432.065 547.187Q431.888 547.552 431.672 547.895C430.136 550.321 427.638 550.882 425.001 551.401C423.146 551.619 421.844 551.101 420.35 550.044C418.212 548.531 416.673 546.134 416.367 543.516C416.154 541.687 416.642 539.597 417.917 538.222C419.52 536.492 421.787 536.422 423.977 536.15Z"/>
	<path fill="#0D3B56" d="M361.31 254.417Q364.388 254.265 367.47 254.264Q370.551 254.263 373.63 254.414Q376.708 254.564 379.775 254.865Q382.842 255.166 385.89 255.618Q388.939 256.069 391.961 256.669Q394.984 257.269 397.974 258.017Q400.963 258.765 403.913 259.659Q406.862 260.552 409.764 261.59Q412.666 262.627 415.513 263.805Q418.361 264.984 421.147 266.3Q423.933 267.617 426.652 269.069Q429.37 270.52 432.014 272.104Q434.658 273.687 437.221 275.398Q439.784 277.109 442.26 278.944Q444.736 280.779 447.119 282.733Q449.502 284.687 451.786 286.756Q454.07 288.825 456.25 291.003Q458.43 293.181 460.501 295.464Q462.571 297.746 464.527 300.128Q466.483 302.509 468.32 304.983Q470.157 307.458 471.87 310.02Q473.583 312.581 475.169 315.224Q476.754 317.866 478.208 320.584Q479.662 323.301 480.981 326.086Q482.3 328.871 483.481 331.718Q484.661 334.564 485.701 337.466Q486.741 340.367 487.637 343.315Q488.533 346.264 489.283 349.253Q490.033 352.242 490.636 355.264Q491.238 358.286 491.692 361.334Q492.146 364.383 492.45 367.449Q492.753 370.516 492.906 373.594Q493.059 376.672 493.06 379.754Q493.062 382.835 492.912 385.914Q492.763 388.992 492.462 392.059Q492.162 395.126 491.711 398.174Q491.261 401.223 490.661 404.246Q490.062 407.269 489.315 410.258Q488.568 413.248 487.675 416.198Q486.782 419.147 485.745 422.049Q484.709 424.952 483.531 427.8Q482.353 430.647 481.037 433.434Q479.721 436.221 478.27 438.939Q476.819 441.658 475.237 444.302Q473.654 446.947 471.943 449.51Q470.233 452.073 468.398 454.55Q466.564 457.026 464.611 459.41Q462.657 461.793 460.589 464.078Q458.521 466.363 456.343 468.543Q454.166 470.724 451.883 472.795Q449.601 474.866 447.221 476.822Q444.84 478.779 442.366 480.616Q439.892 482.454 437.33 484.168Q434.769 485.882 432.127 487.468Q429.485 489.054 426.768 490.508Q424.051 491.963 421.266 493.283Q418.481 494.602 415.635 495.784Q412.789 496.965 409.888 498.005Q406.987 499.045 404.038 499.942Q401.09 500.839 398.101 501.59Q395.112 502.341 392.09 502.944Q389.068 503.548 386.02 504.002Q382.972 504.457 379.906 504.761Q376.839 505.065 373.761 505.219Q370.682 505.373 367.599 505.375Q364.517 505.377 361.438 505.228Q358.359 505.079 355.29 504.78Q352.222 504.48 349.173 504.029Q346.123 503.579 343.099 502.98Q340.075 502.381 337.084 501.634Q334.093 500.887 331.143 499.994Q328.192 499.102 325.289 498.065Q322.386 497.029 319.537 495.851Q316.688 494.673 313.9 493.357Q311.113 492.041 308.393 490.59Q305.673 489.138 303.028 487.555Q300.383 485.972 297.819 484.261Q295.254 482.55 292.777 480.716Q290.3 478.881 287.916 476.927Q285.531 474.973 283.246 472.904Q280.961 470.835 278.779 468.657Q276.598 466.478 274.527 464.195Q272.455 461.913 270.498 459.531Q268.541 457.149 266.703 454.674Q264.865 452.199 263.151 449.637Q261.437 447.075 259.85 444.432Q258.264 441.789 256.809 439.071Q255.354 436.353 254.035 433.567Q252.715 430.781 251.534 427.934Q250.352 425.086 249.312 422.184Q248.272 419.283 247.375 416.333Q246.479 413.384 245.728 410.394Q244.977 407.404 244.374 404.381Q243.771 401.358 243.317 398.308Q242.863 395.259 242.56 392.192Q242.256 389.124 242.103 386.045Q241.95 382.966 241.949 379.883Q241.947 376.801 242.097 373.722Q242.247 370.643 242.547 367.575Q242.848 364.507 243.299 361.457Q243.75 358.407 244.35 355.384Q244.949 352.36 245.697 349.369Q246.445 346.379 247.338 343.428Q248.232 340.478 249.269 337.575Q250.306 334.672 251.485 331.823Q252.663 328.975 253.98 326.188Q255.297 323.4 256.749 320.681Q258.201 317.962 259.784 315.317Q261.368 312.672 263.08 310.108Q264.791 307.544 266.627 305.067Q268.462 302.591 270.417 300.207Q272.371 297.823 274.441 295.538Q276.51 293.253 278.689 291.073Q280.868 288.892 283.151 286.821Q285.435 284.75 287.817 282.793Q290.199 280.837 292.675 279Q295.15 277.162 297.713 275.449Q300.275 273.735 302.919 272.149Q305.562 270.564 308.28 269.11Q310.999 267.656 313.785 266.337Q316.571 265.018 319.419 263.837Q322.267 262.656 325.169 261.617Q328.071 260.578 331.021 259.682Q333.97 258.786 336.96 258.036Q339.951 257.286 342.974 256.684Q345.997 256.082 349.046 255.628Q352.096 255.175 355.163 254.872Q358.231 254.569 361.31 254.417Z"/>
	<path fill="#3C9DCB" d="M366.773 272.342C368.166 272.312 369.584 272.22 370.975 272.299C382.32 272.863 393.727 273.994 404.557 277.65L410.035 279.81Q411.19 280.247 412.334 280.711Q413.477 281.176 414.61 281.668Q415.742 282.16 416.862 282.68Q417.981 283.2 419.088 283.746Q420.195 284.293 421.289 284.867Q422.382 285.44 423.461 286.04Q424.54 286.64 425.604 287.266Q426.668 287.892 427.717 288.544Q428.765 289.195 429.798 289.872Q430.83 290.549 431.846 291.251Q432.861 291.953 433.86 292.679Q434.858 293.406 435.838 294.156Q436.819 294.906 437.78 295.68Q438.742 296.454 439.685 297.252Q440.628 298.049 441.551 298.869Q442.474 299.689 443.376 300.531Q444.279 301.373 445.161 302.237Q446.043 303.1 446.904 303.985Q447.765 304.87 448.604 305.776Q449.443 306.682 450.26 307.607Q451.076 308.533 451.87 309.479Q452.664 310.424 453.435 311.388Q454.206 312.353 454.953 313.336Q455.7 314.318 456.423 315.319Q457.146 316.32 457.845 317.338Q458.543 318.356 459.217 319.391Q459.89 320.425 460.538 321.476Q461.186 322.527 461.809 323.593Q462.431 324.659 463.027 325.74Q463.623 326.821 464.193 327.917Q464.763 329.012 465.306 330.121Q465.849 331.229 466.365 332.351C470.095 340.503 472.475 348.686 474.646 357.347L475.52 362.839C476.516 374.434 476.655 385.332 474.842 396.876C474.465 398.713 473.992 400.581 473.787 402.446C471.546 410.464 469.126 418.49 465.593 426.047C456.393 445.718 439.502 463.246 420.603 473.825C417.68 475.461 414.749 476.961 411.547 477.973C409.761 478.673 407.971 479.456 406.138 480.023C394.324 486.292 374.765 488.471 361.46 488.086L352.383 487.366C345.559 486.237 338.927 484.788 332.422 482.419L325.902 479.705C320.137 478.119 313.661 474.729 308.756 471.316C306.327 469.871 303.996 468.154 301.653 466.567C290.285 458.427 281.206 447.088 273.633 435.45L271.094 430.491C264.234 420.535 260.399 401.018 258.951 388.965C258.674 386.671 258.607 384.349 258.487 382.042C258.364 370.794 260.132 359.831 263.123 349.019L264.656 344.703C268.543 331.306 276.206 321.144 284.201 310.063L286.242 307.366C297.295 296.732 308.387 287.899 322.643 281.878L329.582 279.081C341.828 275.139 354.037 273.557 366.773 272.342Z"/>
	<path fill="#0A6089" d="M442.658 385.892L453.67 386.078C457.052 391.659 460.759 397.004 464.461 402.376C467.56 402.489 470.685 402.428 473.787 402.446C471.546 410.464 469.126 418.49 465.593 426.047C456.393 445.718 439.502 463.246 420.603 473.825C417.68 475.461 414.749 476.961 411.547 477.973Q411.861 477.495 412.159 477.007C413.907 474.129 414.798 471.055 413.835 467.729C413.264 465.759 411.969 464.176 410.164 463.213C406.775 461.405 403.87 462.164 400.426 463.258C397.587 458.96 395.214 454.066 392.856 449.491C402.2 445.535 409.905 440.906 418.042 434.888C419.627 436.729 421.124 438.628 422.621 440.54Q422.519 444.162 422.487 447.785C423.98 450.162 425.315 452.386 427.885 453.753C430.191 454.979 432.825 455.217 435.291 454.327Q435.761 454.153 436.211 453.933Q436.661 453.714 437.088 453.451Q437.515 453.189 437.914 452.886Q438.313 452.583 438.681 452.243Q439.049 451.903 439.382 451.528Q439.714 451.153 440.009 450.748Q440.303 450.343 440.557 449.911Q440.811 449.479 441.021 449.024C442.132 446.642 442.309 443.931 441.384 441.458C440.001 437.764 437.265 436.172 433.795 434.722L427.119 435.669L423.085 429.993C426.206 425.028 430.029 420.279 433.514 415.554C435.884 416.501 438.145 417.661 440.428 418.799C440.384 421.021 440.273 423.254 441.278 425.302Q441.465 425.676 441.687 426.031Q441.909 426.385 442.164 426.716Q442.42 427.047 442.706 427.352Q442.993 427.657 443.307 427.933Q443.622 428.209 443.961 428.453Q444.301 428.696 444.663 428.906Q445.025 429.116 445.405 429.29Q445.786 429.464 446.181 429.6C448.981 430.548 452.203 430.204 454.786 428.789C457.154 427.491 458.994 425.32 459.712 422.701C460.5 419.83 459.833 416.48 458.208 414.005C456.848 411.932 454.406 410.346 451.949 409.982C447.769 409.362 444.909 411.301 441.668 413.56L435.916 410.18C439.356 402.3 441.201 394.316 442.658 385.892Z"/>
	<path fill="#0A6089" d="M410.035 279.81Q411.19 280.247 412.334 280.711Q413.477 281.176 414.61 281.668Q415.742 282.16 416.862 282.68Q417.981 283.2 419.088 283.746Q420.195 284.293 421.289 284.867Q422.382 285.44 423.461 286.04Q424.54 286.64 425.604 287.266Q426.668 287.892 427.717 288.544Q428.765 289.195 429.798 289.872Q430.83 290.549 431.846 291.251Q432.861 291.953 433.86 292.679Q434.858 293.406 435.838 294.156Q436.819 294.906 437.78 295.68Q438.742 296.454 439.685 297.252Q440.628 298.049 441.551 298.869Q442.474 299.689 443.376 300.531Q444.279 301.373 445.161 302.237Q446.043 303.1 446.904 303.985Q447.765 304.87 448.604 305.776Q449.443 306.682 450.26 307.607Q451.076 308.533 451.87 309.479Q452.664 310.424 453.435 311.388Q454.206 312.353 454.953 313.336Q455.7 314.318 456.423 315.319Q457.146 316.32 457.845 317.338Q458.543 318.356 459.217 319.391Q459.89 320.425 460.538 321.476Q461.186 322.527 461.809 323.593Q462.431 324.659 463.027 325.74Q463.623 326.821 464.193 327.917Q464.763 329.012 465.306 330.121Q465.849 331.229 466.365 332.351C470.095 340.503 472.475 348.686 474.646 357.347C463.165 355.997 451.944 355.929 440.41 355.92C436.38 344.457 433.358 337.324 425.403 328.172C427.55 324.994 429.48 321.625 431.493 318.358C432.872 318.149 434.214 317.883 435.544 317.453C439.4 316.204 440.957 314.002 442.694 310.47C442.58 308.091 442.624 305.134 441.339 303.061C439.822 300.614 437.396 299.003 434.575 298.48C431.724 297.952 428.526 298.495 426.164 300.232Q425.813 300.492 425.489 300.786Q425.166 301.08 424.873 301.405Q424.581 301.73 424.323 302.083Q424.065 302.435 423.844 302.812Q423.623 303.189 423.441 303.586Q423.259 303.984 423.117 304.397Q422.976 304.811 422.877 305.237Q422.778 305.662 422.723 306.096C422.189 310.055 424.098 313.36 426.397 316.389C424.656 318.988 422.758 321.503 420.931 324.043C415.039 318.497 408.009 314.214 401.405 309.578C403.243 306.918 405.464 304.504 407.207 301.775C411.363 295.268 410.076 287.205 410.035 279.81Z"/>
	<path fill="#3C9DCB" d="M448.631 325.705Q448.855 325.668 449.081 325.642Q449.307 325.616 449.534 325.601Q449.761 325.585 449.989 325.581Q450.216 325.577 450.443 325.584Q450.671 325.59 450.897 325.608Q451.124 325.626 451.35 325.654Q451.576 325.683 451.8 325.722Q452.024 325.762 452.245 325.812Q452.467 325.862 452.686 325.923Q452.906 325.984 453.122 326.055Q453.338 326.126 453.55 326.208Q453.762 326.29 453.97 326.381Q454.178 326.473 454.382 326.575Q454.585 326.676 454.784 326.788Q454.982 326.899 455.175 327.02Q455.367 327.141 455.554 327.271Q455.741 327.401 455.921 327.539Q456.101 327.678 456.275 327.825Q456.448 327.973 456.614 328.128Q456.78 328.284 456.938 328.447Q457.097 328.61 457.247 328.781Q457.397 328.952 457.539 329.13Q457.681 329.307 457.814 329.492Q457.947 329.676 458.071 329.867Q458.195 330.057 458.31 330.254Q458.425 330.45 458.53 330.652Q458.635 330.853 458.731 331.06Q458.826 331.266 458.911 331.477Q458.997 331.688 459.072 331.903Q459.147 332.118 459.211 332.336Q459.276 332.554 459.33 332.775Q459.384 332.996 459.427 333.219Q459.47 333.442 459.503 333.667Q459.535 333.893 459.557 334.119Q459.578 334.345 459.589 334.573Q459.6 334.8 459.599 335.027Q459.599 335.255 459.588 335.482Q459.577 335.709 459.554 335.935Q459.532 336.162 459.499 336.387Q459.466 336.612 459.422 336.835Q459.378 337.058 459.324 337.279Q459.269 337.5 459.204 337.718Q459.139 337.936 459.063 338.15Q458.988 338.365 458.902 338.575Q458.816 338.786 458.72 338.992Q458.624 339.198 458.518 339.4Q458.413 339.601 458.297 339.797Q458.182 339.993 458.057 340.184Q457.933 340.374 457.799 340.558Q457.666 340.742 457.523 340.919Q457.381 341.097 457.23 341.267Q457.079 341.437 456.921 341.6Q456.762 341.763 456.596 341.918Q456.429 342.073 456.255 342.22Q456.082 342.367 455.901 342.505Q455.721 342.644 455.534 342.773Q455.347 342.902 455.154 343.023Q454.96 343.143 454.762 343.254Q454.563 343.365 454.359 343.466Q454.156 343.567 453.947 343.658Q453.739 343.749 453.526 343.83Q453.314 343.911 453.098 343.982Q452.882 344.053 452.662 344.113Q452.443 344.173 452.221 344.223Q451.914 344.292 451.603 344.34Q451.293 344.387 450.979 344.415Q450.666 344.442 450.352 344.448Q450.037 344.454 449.723 344.44Q449.409 344.425 449.097 344.389Q448.784 344.354 448.475 344.297Q448.166 344.241 447.861 344.164Q447.556 344.088 447.257 343.991Q446.958 343.894 446.666 343.777Q446.374 343.661 446.09 343.525Q445.806 343.389 445.532 343.235Q445.258 343.08 444.995 342.908Q444.732 342.736 444.481 342.546Q444.23 342.357 443.992 342.151Q443.755 341.946 443.531 341.725Q443.307 341.503 443.099 341.268Q442.891 341.033 442.698 340.784Q442.506 340.535 442.331 340.274Q442.156 340.013 441.998 339.741Q441.841 339.469 441.702 339.187Q441.563 338.905 441.443 338.614Q441.323 338.323 441.222 338.025Q441.122 337.727 441.042 337.423Q440.962 337.119 440.902 336.811Q440.842 336.502 440.803 336.19Q440.763 335.878 440.745 335.564Q440.727 335.25 440.73 334.936Q440.732 334.621 440.756 334.308Q440.779 333.994 440.824 333.683Q440.868 333.372 440.933 333.064Q440.998 332.757 441.083 332.454Q441.169 332.151 441.274 331.855Q441.379 331.559 441.504 331.27Q441.629 330.981 441.773 330.702Q441.916 330.422 442.078 330.153Q442.24 329.883 442.42 329.625Q442.6 329.367 442.796 329.121Q442.993 328.876 443.205 328.644Q443.417 328.412 443.644 328.195Q443.872 327.977 444.113 327.776Q444.354 327.574 444.608 327.389Q444.863 327.204 445.129 327.036Q445.394 326.868 445.671 326.718Q445.947 326.569 446.233 326.438Q446.519 326.307 446.813 326.195Q447.107 326.083 447.408 325.991Q447.708 325.899 448.015 325.828Q448.321 325.756 448.631 325.705Z"/>
	<path fill="#0A6089" d="M287.261 371.536L297.639 371.442C294.937 389.859 299.354 399.24 306.019 416.06Q300.289 422.774 295.309 430.062C290.627 430.017 274.79 428.902 271.094 430.491C264.234 420.535 260.399 401.018 258.951 388.965Q264.797 389.176 270.632 389.582C276.323 383.736 281.314 377.109 287.261 371.536Z"/>
	<path fill="#3C9DCB" d="M283.364 391.128C284.907 390.957 286.534 390.712 288.079 390.96C290.6 391.365 292.999 392.971 294.434 395.07Q294.7 395.462 294.925 395.879Q295.15 396.296 295.331 396.733Q295.513 397.171 295.648 397.625Q295.784 398.079 295.872 398.544Q295.961 399.01 296.001 399.482Q296.042 399.954 296.034 400.427Q296.026 400.901 295.969 401.371Q295.913 401.842 295.809 402.304C294.983 405.839 292.781 407.704 289.763 409.439C287.709 409.761 285.712 410.035 283.662 409.508C281.452 408.941 279.49 407.134 278.452 405.139Q278.221 404.693 278.035 404.226Q277.848 403.759 277.708 403.276Q277.568 402.793 277.476 402.299Q277.384 401.805 277.341 401.304Q277.297 400.803 277.302 400.3Q277.308 399.797 277.362 399.298Q277.417 398.798 277.52 398.306Q277.623 397.814 277.773 397.334C278.721 394.304 280.575 392.5 283.364 391.128Z"/>
	<path fill="#0A6089" d="M286.242 307.366C297.295 296.732 308.387 287.899 322.643 281.878L322.963 282.447C324.684 285.469 326.948 288.111 328.62 291.139C332.466 298.105 333.529 306.998 334.705 314.783C327.172 320.019 320.971 326.217 315.09 333.235L314.619 332.731C310.782 328.571 308.161 323.33 304.191 319.35C299.161 314.309 291.982 311.566 286.242 307.366Z"/>
	<path fill="#3C9DCB" d="M318.638 300.733Q318.86 300.703 319.083 300.684Q319.306 300.665 319.53 300.657Q319.754 300.649 319.978 300.652Q320.202 300.655 320.426 300.669Q320.649 300.683 320.872 300.708Q321.095 300.732 321.316 300.768Q321.537 300.803 321.756 300.85Q321.975 300.896 322.192 300.953Q322.409 301.01 322.622 301.078Q322.836 301.145 323.046 301.223Q323.256 301.301 323.462 301.389Q323.668 301.477 323.87 301.574Q324.071 301.672 324.268 301.78Q324.464 301.888 324.655 302.005Q324.846 302.122 325.031 302.248Q325.216 302.374 325.395 302.51Q325.574 302.645 325.745 302.788Q325.917 302.932 326.082 303.084Q326.247 303.236 326.404 303.396Q326.561 303.555 326.71 303.723Q326.859 303.89 326.999 304.064Q327.14 304.239 327.272 304.42Q327.404 304.601 327.527 304.788Q327.65 304.975 327.764 305.168Q327.878 305.361 327.982 305.559Q328.086 305.758 328.181 305.961Q328.275 306.164 328.36 306.371Q328.444 306.579 328.518 306.79Q328.592 307.002 328.656 307.216Q328.72 307.431 328.773 307.649Q328.826 307.866 328.869 308.086Q328.911 308.306 328.943 308.528Q328.975 308.75 328.996 308.973Q329.017 309.196 329.026 309.42Q329.036 309.643 329.036 309.867Q329.035 310.091 329.023 310.315Q329.011 310.539 328.988 310.762Q328.965 310.985 328.932 311.206Q328.898 311.428 328.854 311.647Q328.809 311.867 328.754 312.084Q328.699 312.301 328.634 312.515Q328.568 312.729 328.492 312.94Q328.416 313.151 328.33 313.358Q328.244 313.565 328.148 313.767Q328.051 313.969 327.946 314.167Q327.84 314.364 327.724 314.556Q327.609 314.748 327.484 314.934Q327.36 315.12 327.226 315.3Q327.092 315.48 326.95 315.653Q326.808 315.826 326.658 315.992Q326.507 316.158 326.349 316.317Q326.19 316.475 326.024 316.626Q325.859 316.776 325.685 316.918Q325.512 317.061 325.333 317.194Q325.153 317.328 324.967 317.452Q324.781 317.577 324.589 317.693Q324.397 317.808 324.199 317.914Q324.002 318.02 323.8 318.116Q323.597 318.212 323.39 318.299Q323.184 318.385 322.973 318.461Q322.762 318.537 322.548 318.603Q322.334 318.668 322.117 318.723Q321.9 318.778 321.68 318.823Q321.461 318.867 321.239 318.901Q321.015 318.935 320.79 318.958Q320.564 318.981 320.338 318.993Q320.112 319.005 319.885 319.005Q319.659 319.006 319.432 318.996Q319.206 318.985 318.981 318.963Q318.755 318.942 318.531 318.909Q318.307 318.876 318.085 318.832Q317.862 318.789 317.642 318.734Q317.423 318.679 317.206 318.614Q316.989 318.548 316.775 318.472Q316.562 318.396 316.353 318.309Q316.143 318.223 315.938 318.126Q315.734 318.029 315.534 317.923Q315.334 317.816 315.14 317.699Q314.945 317.583 314.757 317.457Q314.569 317.331 314.387 317.196Q314.205 317.061 314.03 316.917Q313.855 316.773 313.687 316.621Q313.52 316.468 313.36 316.308Q313.2 316.148 313.048 315.979Q312.896 315.811 312.753 315.636Q312.609 315.461 312.475 315.278Q312.34 315.096 312.215 314.907Q312.089 314.719 311.974 314.524Q311.858 314.329 311.751 314.129Q311.645 313.929 311.549 313.724Q311.453 313.519 311.367 313.309Q311.281 313.099 311.206 312.886Q311.13 312.672 311.065 312.455Q311 312.238 310.946 312.018Q310.892 311.798 310.849 311.576Q310.806 311.353 310.774 311.129Q310.742 310.905 310.721 310.679Q310.7 310.454 310.69 310.227Q310.68 310.001 310.682 309.774Q310.683 309.548 310.695 309.322Q310.708 309.095 310.732 308.87Q310.755 308.645 310.79 308.421Q310.825 308.197 310.87 307.975Q310.916 307.753 310.973 307.534Q311.029 307.315 311.097 307.098Q311.164 306.882 311.242 306.669Q311.32 306.457 311.409 306.248Q311.497 306.039 311.596 305.836Q311.694 305.632 311.803 305.433Q311.911 305.234 312.029 305.041Q312.148 304.847 312.275 304.66Q312.403 304.473 312.539 304.292Q312.676 304.111 312.822 303.938Q312.967 303.764 313.121 303.598Q313.275 303.431 313.436 303.273Q313.598 303.114 313.768 302.964Q313.937 302.814 314.114 302.672Q314.291 302.53 314.474 302.397Q314.657 302.264 314.847 302.14Q315.037 302.017 315.233 301.903Q315.428 301.788 315.629 301.684Q315.831 301.58 316.036 301.485Q316.242 301.391 316.453 301.307Q316.663 301.223 316.877 301.149Q317.092 301.076 317.309 301.013Q317.527 300.95 317.747 300.898Q317.968 300.845 318.191 300.804Q318.413 300.763 318.638 300.733Z"/>
	<path fill="#0A6089" d="M370.975 272.299C382.32 272.863 393.727 273.994 404.557 277.65L404.476 294.455C401.189 299.177 397.119 303.313 393.815 308.043C386.357 306.344 378.881 305.243 371.289 304.37C370.696 293.791 371.086 282.912 370.975 272.299Z"/>
	<path fill="#0A6089" d="M329.582 279.081C341.828 275.139 354.037 273.557 366.773 272.342Q366.48 288.448 366.882 304.552C358.015 305.546 350.204 307.845 341.792 310.724C338.58 300.822 337.692 286.467 329.582 279.081Z"/>
	<path fill="#3C9DCB" d="M344.373 278.885Q344.59 278.838 344.809 278.803Q345.029 278.767 345.249 278.741Q345.47 278.716 345.692 278.702Q345.913 278.687 346.136 278.684Q346.358 278.68 346.58 278.687Q346.802 278.694 347.023 278.712Q347.245 278.73 347.465 278.758Q347.685 278.787 347.904 278.826Q348.123 278.866 348.339 278.915Q348.556 278.965 348.769 279.026Q348.983 279.086 349.194 279.156Q349.405 279.227 349.612 279.308Q349.818 279.388 350.021 279.479Q350.224 279.57 350.422 279.67Q350.62 279.771 350.813 279.881Q351.006 279.991 351.194 280.11Q351.381 280.229 351.563 280.357Q351.744 280.485 351.919 280.622Q352.094 280.759 352.263 280.904Q352.431 281.049 352.592 281.202Q352.753 281.355 352.906 281.516Q353.059 281.677 353.205 281.845Q353.35 282.013 353.487 282.188Q353.624 282.363 353.752 282.544Q353.881 282.725 354 282.913Q354.12 283.1 354.23 283.293Q354.34 283.486 354.441 283.684Q354.541 283.882 354.632 284.085Q354.723 284.287 354.804 284.494Q354.885 284.701 354.956 284.911Q355.027 285.122 355.087 285.336Q355.148 285.55 355.198 285.766Q355.248 285.982 355.288 286.201Q355.327 286.42 355.356 286.64Q355.385 286.86 355.403 287.081Q355.421 287.303 355.428 287.525Q355.436 287.747 355.432 287.969Q355.429 288.191 355.415 288.413Q355.401 288.635 355.376 288.855Q355.351 289.076 355.315 289.295Q355.28 289.515 355.233 289.732Q355.187 289.949 355.13 290.164Q355.074 290.379 355.007 290.59Q354.939 290.802 354.862 291.01Q354.785 291.219 354.698 291.423Q354.61 291.627 354.513 291.827Q354.416 292.027 354.309 292.222Q354.203 292.416 354.087 292.606Q353.971 292.795 353.845 292.979Q353.72 293.162 353.586 293.34Q353.453 293.517 353.31 293.688Q353.168 293.858 353.018 294.022Q352.867 294.185 352.709 294.341Q352.551 294.497 352.385 294.645Q352.22 294.793 352.047 294.933Q351.874 295.073 351.695 295.204Q351.516 295.336 351.331 295.458Q351.146 295.581 350.954 295.694Q350.763 295.807 350.567 295.911Q350.371 296.015 350.17 296.109Q349.969 296.204 349.763 296.288Q349.558 296.372 349.348 296.447Q349.139 296.521 348.926 296.585Q348.714 296.649 348.498 296.703Q348.204 296.776 347.907 296.83Q347.609 296.883 347.308 296.917Q347.007 296.951 346.705 296.965Q346.403 296.978 346.1 296.972Q345.798 296.966 345.496 296.94Q345.195 296.914 344.896 296.867Q344.597 296.821 344.301 296.756Q344.006 296.69 343.716 296.605Q343.425 296.52 343.141 296.416Q342.857 296.312 342.58 296.189Q342.304 296.066 342.036 295.926Q341.768 295.785 341.51 295.627Q341.252 295.469 341.005 295.294Q340.758 295.119 340.523 294.928Q340.288 294.738 340.066 294.532Q339.845 294.326 339.637 294.106Q339.429 293.886 339.237 293.653Q339.044 293.419 338.867 293.174Q338.69 292.928 338.53 292.672Q338.37 292.415 338.227 292.149Q338.084 291.882 337.959 291.606Q337.834 291.331 337.727 291.048Q337.621 290.764 337.533 290.475Q337.446 290.185 337.378 289.891Q337.309 289.596 337.261 289.297Q337.212 288.999 337.183 288.697Q337.155 288.396 337.146 288.094Q337.137 287.791 337.148 287.489Q337.16 287.187 337.191 286.886Q337.222 286.585 337.273 286.287Q337.324 285.988 337.395 285.694Q337.465 285.4 337.555 285.111Q337.645 284.822 337.754 284.54Q337.862 284.257 337.99 283.983Q338.117 283.708 338.262 283.443Q338.407 283.177 338.569 282.922Q338.732 282.667 338.91 282.423Q339.089 282.179 339.284 281.947Q339.478 281.715 339.688 281.497Q339.897 281.279 340.121 281.074Q340.344 280.87 340.58 280.682Q340.817 280.493 341.065 280.32Q341.314 280.147 341.573 279.991Q341.832 279.835 342.101 279.697Q342.37 279.558 342.648 279.438Q342.925 279.317 343.21 279.216Q343.495 279.114 343.786 279.031Q344.077 278.948 344.373 278.885Z"/>
	<path fill="#0A6089" d="M370.21 453.106C375.764 452.752 381.302 451.934 386.824 451.244C389.715 456.175 393.181 461.359 395.482 466.581C396.796 469.561 396.551 473.17 398.228 475.969C400.02 478.961 403.008 479.295 406.138 480.023C394.324 486.292 374.765 488.471 361.46 488.086C363.224 484.416 365.82 480.988 367.827 477.42C371.836 470.289 370.374 461.03 370.21 453.106Z"/>
	<path fill="#0A6089" d="M264.656 344.703C268.543 331.306 276.206 321.144 284.201 310.063C284.784 313.419 286.28 314.983 289.043 316.96C291.834 318.959 294.955 320.533 297.582 322.761C302.206 326.684 307.004 334.188 309.733 339.629C308.819 341.41 307.955 343.249 306.892 344.947Q299.299 342.384 291.635 340.044C287.698 342.661 284.315 345.889 280.988 349.231C275.583 347.85 270.09 345.79 264.656 344.703Z"/>
	<path fill="#0A6089" d="M347.648 449.074C352.544 450.605 357.46 452.061 362.547 452.81Q362.934 461.503 363.197 470.2C360.077 476.196 355.823 481.55 352.383 487.366C345.559 486.237 338.927 484.788 332.422 482.419C333.81 459.231 334.938 466.217 347.648 449.074Z"/>
	<path fill="#0A6089" d="M442.154 362.981Q458.838 363.113 475.52 362.839C476.516 374.434 476.655 385.332 474.842 396.876C473.195 396.174 471.256 395.826 469.521 395.36C465.009 390.841 462.657 384.898 458.454 380.202C453.234 379.41 447.988 379.494 442.722 379.439C442.789 373.955 442.491 368.453 442.154 362.981Z"/>
	<path fill="#0A6089" d="M327.193 439.005C331.927 441.49 336.493 444.421 341.278 446.771C336.355 452.887 330.636 458.704 325.996 464.98C326.021 469.881 326.153 474.81 325.902 479.705C320.137 478.119 313.661 474.729 308.756 471.316C309.857 463.444 311.097 455.559 311.957 447.657C316.936 444.551 322.01 441.752 327.193 439.005Z"/>
	<path fill="#0A6089" d="M258.487 382.042C258.364 370.794 260.132 359.831 263.123 349.019C268.427 350.824 273.984 351.899 279.236 353.8C280.568 357.492 281.678 361.23 282.367 365.101C277.866 371.043 272.972 376.804 267.94 382.303C264.81 382.193 261.614 381.945 258.487 382.042Z"/>
	<path fill="#0A6089" d="M273.633 435.45C289.191 435.883 292.875 433.58 306.054 443.565C304.729 451.286 303.195 458.894 301.653 466.567C290.285 458.427 281.206 447.088 273.633 435.45Z"/>
	<path fill="#0D3B56" d="M364.833 313.348Q366.456 313.241 368.081 313.214Q369.707 313.187 371.332 313.239Q372.957 313.292 374.578 313.425Q376.198 313.558 377.811 313.771Q379.423 313.984 381.022 314.275Q382.622 314.567 384.205 314.937Q385.788 315.307 387.352 315.755Q388.915 316.203 390.454 316.727Q391.993 317.251 393.505 317.851Q395.016 318.45 396.496 319.123Q397.976 319.796 399.422 320.541Q400.867 321.286 402.274 322.102Q403.68 322.917 405.045 323.801Q406.41 324.685 407.73 325.635Q409.05 326.585 410.321 327.598Q411.592 328.612 412.812 329.687Q414.032 330.762 415.197 331.896Q416.363 333.03 417.471 334.22Q418.579 335.41 419.627 336.653Q420.675 337.896 421.661 339.189Q422.647 340.483 423.567 341.823Q424.488 343.163 425.342 344.547Q426.195 345.931 426.98 347.355Q427.764 348.779 428.478 350.24Q429.191 351.702 429.831 353.196Q430.472 354.691 431.038 356.215Q431.604 357.739 432.095 359.29Q432.585 360.84 432.998 362.412Q433.412 363.985 433.747 365.576Q434.083 367.167 434.339 368.773Q434.596 370.378 434.773 371.995Q434.951 373.611 435.048 375.234Q435.145 376.857 435.163 378.483Q435.18 380.109 435.117 381.734Q435.055 383.359 434.912 384.978Q434.769 386.598 434.547 388.209Q434.325 389.82 434.023 391.417Q433.722 393.015 433.342 394.596Q432.963 396.177 432.506 397.738Q432.048 399.298 431.515 400.834Q430.982 402.37 430.373 403.878Q429.765 405.386 429.083 406.862Q428.401 408.338 427.647 409.779Q426.893 411.22 426.069 412.621Q425.245 414.023 424.354 415.383Q423.462 416.742 422.504 418.056Q421.546 419.37 420.525 420.636Q419.503 421.901 418.421 423.114Q417.338 424.327 416.197 425.486Q415.057 426.645 413.86 427.746Q412.663 428.846 411.414 429.887Q410.165 430.928 408.866 431.906Q407.566 432.884 406.221 433.796Q404.875 434.709 403.486 435.554Q402.097 436.4 400.668 437.176Q399.239 437.951 397.774 438.656Q396.308 439.361 394.81 439.992Q393.312 440.624 391.784 441.181Q390.256 441.737 388.703 442.219Q387.15 442.7 385.575 443.103Q384 443.507 382.407 443.833Q380.814 444.159 379.206 444.406Q377.599 444.653 375.982 444.821Q374.365 444.988 372.741 445.076Q371.13 445.163 369.516 445.171Q367.903 445.179 366.291 445.109Q364.678 445.038 363.072 444.888Q361.465 444.739 359.868 444.511Q358.27 444.283 356.686 443.978Q355.102 443.672 353.534 443.289Q351.966 442.907 350.419 442.448Q348.872 441.989 347.35 441.455Q345.827 440.921 344.332 440.313Q342.837 439.706 341.374 439.026Q339.911 438.346 338.483 437.595Q337.054 436.844 335.664 436.024Q334.275 435.205 332.926 434.318Q331.578 433.431 330.275 432.48Q328.972 431.528 327.717 430.514Q326.461 429.5 325.257 428.426Q324.053 427.352 322.903 426.22Q321.753 425.089 320.66 423.902Q319.566 422.715 318.532 421.477Q317.498 420.238 316.525 418.95Q315.553 417.663 314.645 416.329Q313.737 414.995 312.895 413.619Q312.053 412.242 311.279 410.826Q310.505 409.41 309.802 407.958Q309.098 406.506 308.466 405.021Q307.835 403.536 307.276 402.022Q306.718 400.508 306.234 398.969Q305.75 397.43 305.343 395.869Q304.935 394.307 304.603 392.728Q304.272 391.149 304.019 389.555Q303.765 387.962 303.59 386.358Q303.415 384.754 303.318 383.143Q303.221 381.532 303.203 379.919Q303.186 378.305 303.247 376.693Q303.308 375.08 303.447 373.473Q303.587 371.865 303.805 370.266Q304.023 368.668 304.32 367.081Q304.616 365.495 304.989 363.925Q305.362 362.355 305.812 360.806Q306.261 359.256 306.786 357.73Q307.311 356.204 307.909 354.706Q308.508 353.207 309.179 351.74Q309.851 350.273 310.593 348.84Q311.335 347.407 312.146 346.012Q312.958 344.617 313.836 343.264Q314.715 341.91 315.658 340.601Q316.602 339.292 317.608 338.031Q318.615 336.77 319.682 335.559Q320.749 334.349 321.874 333.192Q322.998 332.035 324.178 330.934Q325.358 329.834 326.591 328.792Q327.823 327.751 329.105 326.771Q330.387 325.79 331.715 324.874Q333.044 323.958 334.415 323.108Q335.786 322.257 337.198 321.475Q338.609 320.693 340.057 319.981Q341.505 319.268 342.986 318.628Q344.467 317.987 345.977 317.42Q347.488 316.852 349.024 316.359Q350.561 315.866 352.12 315.449Q353.678 315.032 355.256 314.691Q356.833 314.35 358.425 314.087Q360.017 313.824 361.62 313.639Q363.223 313.454 364.833 313.348Z"/>
	<path fill="#E8484A" d="M331.711 413.213C330.36 411.285 328.998 409.347 327.822 407.308C320.648 394.877 318.224 379.531 322.044 365.614Q322.37 364.408 322.756 363.219Q323.141 362.03 323.584 360.862Q324.027 359.693 324.526 358.548Q325.026 357.402 325.581 356.283Q326.136 355.163 326.745 354.072Q327.355 352.981 328.017 351.921Q328.679 350.861 329.392 349.835Q330.105 348.809 330.868 347.819Q331.63 346.829 332.44 345.877Q333.251 344.926 334.106 344.015Q334.962 343.105 335.862 342.237Q336.761 341.369 337.702 340.547Q338.642 339.724 339.622 338.949Q340.602 338.173 341.619 337.447Q342.636 336.72 343.687 336.044Q344.738 335.369 345.821 334.745C357.574 328.13 373.481 326.621 386.394 330.287C387.022 334.324 387.844 338.209 389.243 342.058C391.789 349.063 396.28 357.095 403.396 360.223C408.254 362.358 412.105 361.576 416.829 359.819C420.884 368.738 421.392 378.555 420.498 388.166C420.179 390.579 419.969 393.062 419.359 395.421C415.15 408.786 408.92 420.298 396.08 427.095C384.212 433.378 368.374 433.922 355.701 429.919C351.095 428.464 347.091 426.346 342.93 423.934C338.561 421.069 334.618 417.574 331.711 413.213Z"/>
	<path fill="#E8484A" d="M344.098 392.999Q361.872 392.729 379.647 392.871C385.048 392.911 390.753 392.601 396.123 393.063C399.287 393.334 401.9 395.424 405.314 395.64C409.991 395.937 414.647 395.076 419.359 395.421C415.15 408.786 408.92 420.298 396.08 427.095C384.212 433.378 368.374 433.922 355.701 429.919C351.095 428.464 347.091 426.346 342.93 423.934C345.142 419.57 344.042 399.117 344.098 392.999Z"/>
	<path fill="#AA2C31" d="M360.493 381.055Q360.544 370.852 360.46 360.649C360.4 355.732 359.913 350.53 360.609 345.664C361.079 345.187 361.242 344.707 361.982 344.789C367.065 345.346 377.999 363.378 382.092 367.68C392.382 378.496 405.086 387.795 420.498 388.166C420.179 390.579 419.969 393.062 419.359 395.421C414.647 395.076 409.991 395.937 405.314 395.64C401.9 395.424 399.287 393.334 396.123 393.063C390.753 392.601 385.048 392.911 379.647 392.871Q361.872 392.729 344.098 392.999C344.042 399.117 345.142 419.57 342.93 423.934C338.561 421.069 334.618 417.574 331.711 413.213C333.768 406.909 332.512 388.386 332.466 380.93C341.749 380.501 351.198 380.962 360.493 381.055Z"/>
	<path fill="#0A6089" d="M292.692 346.897C296.468 346.832 300.368 348.766 303.851 350.062C302.61 354.083 301.518 358.389 299.829 362.237C299.086 363.931 298.755 364.184 297.033 364.831C293.94 364.95 290.832 364.947 287.736 365.001C286.693 361.122 285.662 357.307 285.128 353.316C287.352 350.874 289.962 348.741 292.692 346.897Z"/>
	<path fill="#0A6089" d="M308.938 419.367C310.657 420.749 312.071 423.167 313.5 424.882Q318.048 430.244 322.922 435.31C319.856 436.956 316.903 438.686 313.972 440.562C313.253 441.093 312.84 441.241 312.005 441.501C307.659 440.363 303.58 434.712 300.839 431.332Q304.81 425.296 308.938 419.367Z"/>
	<path fill="#0A6089" d="M430.229 439.329Q430.356 439.284 430.485 439.245Q430.613 439.207 430.744 439.174Q430.875 439.142 431.007 439.116Q431.139 439.091 431.272 439.071Q431.405 439.052 431.539 439.039Q431.673 439.027 431.807 439.021Q431.941 439.015 432.076 439.015Q432.21 439.016 432.345 439.023Q432.479 439.03 432.613 439.044Q432.747 439.058 432.88 439.079Q433.012 439.099 433.144 439.126Q433.276 439.153 433.406 439.186Q433.537 439.22 433.665 439.26Q433.794 439.299 433.92 439.345Q434.046 439.392 434.17 439.444Q434.294 439.496 434.415 439.554Q434.537 439.613 434.655 439.677Q434.773 439.741 434.888 439.811Q435.003 439.881 435.114 439.957Q435.225 440.032 435.333 440.113Q435.44 440.194 435.543 440.28Q435.647 440.366 435.746 440.458Q435.844 440.549 435.939 440.645Q436.033 440.74 436.123 440.841Q436.212 440.941 436.297 441.046Q436.381 441.151 436.46 441.26Q436.539 441.368 436.613 441.481Q436.687 441.593 436.755 441.709Q436.823 441.825 436.885 441.945Q436.947 442.064 437.003 442.186Q437.06 442.308 437.11 442.433Q437.16 442.558 437.204 442.685Q437.248 442.812 437.286 442.941Q437.323 443.07 437.355 443.201Q437.386 443.332 437.411 443.464Q437.435 443.596 437.454 443.73Q437.472 443.863 437.483 443.997Q437.495 444.131 437.5 444.265Q437.505 444.4 437.503 444.534Q437.502 444.669 437.493 444.803Q437.485 444.937 437.47 445.071Q437.455 445.205 437.434 445.338Q437.412 445.47 437.384 445.602Q437.357 445.733 437.322 445.863Q437.288 445.994 437.247 446.122Q437.206 446.25 437.159 446.376Q437.112 446.502 437.059 446.625Q437.005 446.749 436.946 446.87Q436.887 446.99 436.822 447.108Q436.757 447.226 436.686 447.34Q436.615 447.454 436.539 447.565Q436.462 447.676 436.38 447.783Q436.299 447.889 436.212 447.992Q436.125 448.095 436.033 448.193Q435.941 448.291 435.844 448.385Q435.748 448.478 435.646 448.567Q435.545 448.656 435.44 448.739Q435.335 448.823 435.225 448.901Q435.116 448.979 435.003 449.052Q434.89 449.125 434.773 449.192Q434.657 449.259 434.537 449.321Q434.417 449.382 434.294 449.437Q434.172 449.493 434.047 449.542Q433.921 449.591 433.794 449.634Q433.668 449.677 433.54 449.713Q433.412 449.749 433.282 449.779Q433.152 449.809 433.021 449.833Q432.89 449.857 432.758 449.874Q432.626 449.891 432.493 449.902Q432.36 449.913 432.227 449.917Q432.094 449.921 431.961 449.919Q431.828 449.917 431.695 449.908Q431.562 449.9 431.43 449.884Q431.297 449.869 431.166 449.848Q431.034 449.826 430.904 449.798Q430.774 449.77 430.645 449.736Q430.517 449.701 430.39 449.661Q430.263 449.62 430.138 449.573Q430.014 449.526 429.891 449.474Q429.769 449.421 429.649 449.362Q429.53 449.304 429.413 449.239Q429.297 449.175 429.184 449.105Q429.07 449.035 428.961 448.959Q428.851 448.884 428.745 448.803Q428.639 448.722 428.537 448.636Q428.435 448.55 428.338 448.46Q428.24 448.369 428.147 448.273Q428.055 448.178 427.966 448.078Q427.878 447.979 427.795 447.875Q427.712 447.771 427.634 447.663Q427.556 447.555 427.483 447.443Q427.41 447.331 427.343 447.216Q427.276 447.101 427.214 446.983Q427.153 446.865 427.097 446.744Q427.042 446.623 426.992 446.5Q426.943 446.376 426.899 446.25Q426.855 446.124 426.818 445.996Q426.781 445.868 426.75 445.739Q426.719 445.609 426.694 445.479Q426.669 445.348 426.651 445.216Q426.633 445.084 426.621 444.951Q426.609 444.819 426.604 444.685Q426.598 444.552 426.6 444.419Q426.601 444.286 426.608 444.153Q426.616 444.02 426.63 443.888Q426.644 443.755 426.665 443.624Q426.686 443.492 426.713 443.362Q426.74 443.231 426.773 443.102Q426.806 442.973 426.846 442.846Q426.885 442.719 426.931 442.594Q426.977 442.469 427.029 442.346Q427.081 442.224 427.138 442.104Q427.196 441.984 427.26 441.866Q427.323 441.749 427.392 441.636Q427.462 441.522 427.536 441.412Q427.611 441.301 427.691 441.195Q427.771 441.088 427.856 440.986Q427.941 440.883 428.031 440.785Q428.121 440.687 428.215 440.593Q428.31 440.499 428.409 440.41Q428.508 440.321 428.612 440.237Q428.715 440.153 428.822 440.075Q428.93 439.996 429.041 439.922Q429.152 439.849 429.266 439.781Q429.381 439.712 429.498 439.65Q429.616 439.588 429.737 439.531Q429.857 439.475 429.98 439.424Q430.103 439.373 430.229 439.329Z"/>
	<path fill="#0A6089" d="M404.736 466.302Q404.864 466.284 404.993 466.273Q405.122 466.261 405.251 466.256Q405.381 466.251 405.51 466.253Q405.64 466.254 405.769 466.261Q405.898 466.269 406.027 466.283Q406.155 466.297 406.283 466.317Q406.411 466.337 406.538 466.363Q406.664 466.39 406.79 466.422Q406.915 466.455 407.039 466.494Q407.162 466.532 407.284 466.577Q407.405 466.622 407.524 466.672Q407.643 466.723 407.76 466.779Q407.876 466.835 407.99 466.897Q408.104 466.959 408.214 467.027Q408.325 467.094 408.432 467.167Q408.539 467.24 408.642 467.317Q408.745 467.395 408.845 467.478Q408.944 467.561 409.04 467.649Q409.135 467.736 409.226 467.829Q409.316 467.921 409.403 468.017Q409.489 468.114 409.57 468.214Q409.652 468.315 409.728 468.42Q409.805 468.524 409.876 468.632Q409.947 468.74 410.013 468.852Q410.078 468.963 410.139 469.078Q410.199 469.192 410.254 469.31Q410.308 469.427 410.357 469.547Q410.406 469.667 410.449 469.789Q410.492 469.911 410.528 470.035Q410.565 470.159 410.596 470.285Q410.627 470.411 410.651 470.538Q410.676 470.665 410.694 470.793Q410.712 470.921 410.724 471.05Q410.736 471.179 410.742 471.308Q410.748 471.438 410.747 471.567Q410.746 471.696 410.739 471.826Q410.732 471.955 410.719 472.084Q410.706 472.212 410.686 472.34Q410.666 472.468 410.641 472.595Q410.615 472.722 410.583 472.847Q410.551 472.973 410.513 473.097Q410.474 473.22 410.43 473.342Q410.386 473.464 410.336 473.583Q410.286 473.702 410.23 473.819Q410.175 473.936 410.113 474.05Q410.052 474.164 409.985 474.275Q409.918 474.385 409.846 474.493Q409.773 474.6 409.696 474.704Q409.618 474.808 409.536 474.907Q409.453 475.007 409.366 475.103Q409.279 475.198 409.187 475.29Q409.095 475.381 408.999 475.468Q408.903 475.554 408.803 475.636Q408.702 475.718 408.598 475.795Q408.494 475.872 408.386 475.943Q408.279 476.015 408.167 476.081Q408.056 476.147 407.942 476.208Q407.828 476.269 407.71 476.324Q407.593 476.379 407.474 476.429Q407.354 476.478 407.232 476.521Q407.11 476.565 406.986 476.602Q406.862 476.639 406.737 476.671Q406.611 476.702 406.484 476.727Q406.357 476.752 406.229 476.771Q406.1 476.79 405.971 476.802Q405.841 476.815 405.711 476.821Q405.581 476.827 405.451 476.827Q405.321 476.827 405.191 476.82Q405.061 476.814 404.931 476.801Q404.802 476.788 404.673 476.768Q404.544 476.749 404.417 476.723Q404.289 476.698 404.163 476.666Q404.037 476.634 403.912 476.596Q403.788 476.558 403.666 476.514Q403.543 476.469 403.423 476.419Q403.303 476.369 403.185 476.313Q403.068 476.257 402.953 476.196Q402.839 476.134 402.727 476.067Q402.616 475.999 402.508 475.927Q402.4 475.854 402.296 475.776Q402.191 475.698 402.091 475.615Q401.991 475.532 401.894 475.445Q401.798 475.357 401.707 475.265Q401.615 475.172 401.528 475.075Q401.441 474.979 401.359 474.878Q401.277 474.777 401.2 474.672Q401.122 474.567 401.051 474.459Q400.979 474.35 400.912 474.238Q400.846 474.126 400.785 474.011Q400.724 473.896 400.669 473.778Q400.614 473.66 400.565 473.54Q400.516 473.419 400.472 473.296Q400.429 473.174 400.392 473.049Q400.355 472.924 400.324 472.798Q400.293 472.671 400.268 472.544Q400.243 472.416 400.225 472.287Q400.207 472.158 400.195 472.029Q400.183 471.899 400.177 471.769Q400.171 471.639 400.172 471.509Q400.173 471.378 400.18 471.248Q400.187 471.118 400.201 470.989Q400.214 470.86 400.234 470.731Q400.254 470.602 400.28 470.475Q400.307 470.347 400.339 470.221Q400.371 470.095 400.41 469.971Q400.449 469.846 400.493 469.724Q400.538 469.602 400.589 469.482Q400.639 469.362 400.696 469.245Q400.752 469.128 400.815 469.013Q400.877 468.899 400.945 468.788Q401.012 468.677 401.086 468.569Q401.159 468.461 401.237 468.357Q401.315 468.253 401.399 468.153Q401.482 468.053 401.57 467.958Q401.658 467.862 401.751 467.771Q401.844 467.679 401.941 467.593Q402.038 467.506 402.14 467.424Q402.241 467.343 402.346 467.266Q402.451 467.189 402.56 467.118Q402.669 467.046 402.781 466.981Q402.894 466.915 403.009 466.854Q403.124 466.794 403.243 466.739Q403.361 466.685 403.482 466.636Q403.602 466.587 403.725 466.545Q403.848 466.502 403.973 466.465Q404.098 466.429 404.225 466.398Q404.351 466.368 404.479 466.344Q404.607 466.32 404.736 466.302Z"/>
	<path fill="#0D3B56" d="M57.3339 692.089C82.5023 692.73 118.421 687.031 138.085 706.566C149.86 718.263 153.851 735.842 153.714 751.932C153.575 768.286 148.848 782.295 137.135 793.864C115.782 812.965 83.604 806.732 57.4498 808.191C56.5616 769.578 56.9941 730.714 57.3339 692.089ZM80.7509 788.007C95.2966 788.078 107.899 788.93 119.866 779.34C128.143 769.063 130.563 757.131 129.167 744.123C128.161 734.742 125.415 725.259 117.694 719.16C107.476 711.088 93.2897 711.968 81.0249 712.085C80.0726 737.343 81.3414 762.722 80.7509 788.007Z"/>
	<path fill="#E8484A" d="M794.698 691.917C803.292 691.831 811.892 691.906 820.487 691.927C839.709 691.974 859.849 692.152 874.512 706.569C885.808 717.676 889.949 734.966 890.09 750.361C890.241 766.722 885.377 781.688 873.781 793.406C852.448 812.681 821.223 807.578 794.83 808.313L794.698 691.917ZM818.013 788.018C832.024 788.047 846.242 789.155 856.915 778.369C857.067 778.215 857.215 778.058 857.365 777.903C864.963 768.235 867.29 756.108 865.817 744.046C864.665 734.6 861.508 724.857 853.746 718.767C843.798 710.963 829.761 712.395 817.895 712.439C818.064 737.615 817.523 762.851 818.013 788.018Z"/>
	<path fill="#0D3B56" d="M514.375 685.965C521.904 686.144 529.467 686.008 537 686.017C536.687 692.621 537.333 699.394 537.456 706.016C537.619 714.795 537.346 723.545 537.033 732.317C543.213 728.192 549.291 724.69 556.748 723.572C564.971 722.339 573.763 724.014 580.463 729.088C589.336 735.809 593.965 745.704 595.453 756.549C597.401 770.746 594.489 785.436 585.784 796.946C580.542 802.958 574.363 806.998 566.558 808.852C555.401 811.502 546.026 808.304 536.577 802.421C536.84 804.377 537.204 806.26 537.668 808.178Q526.047 807.893 514.426 808.21Q514.554 777.054 514.357 745.899C514.392 725.937 514.794 705.921 514.375 685.965ZM536.917 748.448C537.104 761.011 536.771 773.594 537.033 786.148C542.79 790.402 548.811 792.876 556.119 791.876C561.25 790.95 565.085 788.788 568.153 784.481C573.364 777.165 574.318 765.832 572.662 757.222C571.701 752.223 569.293 747.687 565.015 744.773C561.628 742.464 558.142 741.94 554.166 741.676C547.199 742.256 542.432 744.229 536.917 748.448Z"/>
	<path fill="#E8484A" d="M696.807 691.829L725.018 691.862C739.448 691.851 755.176 690.232 767.285 699.712C774.485 705.35 778.248 713.53 779.286 722.484C780.554 733.424 778.641 745.106 771.63 753.88C763.721 763.777 752.677 767.001 740.602 768.45Q730.547 768.745 720.489 768.591L720.534 808.096Q708.763 808.021 696.995 808.297C696.368 769.488 697.535 730.632 696.807 691.829ZM749.526 743.846C753.862 738.951 755.462 734.062 755.054 727.535C754.782 723.188 753.469 718.915 750.037 716.028C742.872 709.999 729.198 712.341 720.479 712.019L720.553 748.842C730.233 748.928 741.494 750.341 749.526 743.846Z"/>
	<path fill="#0D3B56" d="M552.207 482.768Q553.812 482.704 555.418 482.683C565.937 482.484 576.14 482.338 584.193 490.399C592.149 498.363 592.148 507.897 592.075 518.363C592.011 527.505 591.25 535.689 584.151 542.417C575.938 550.199 566.604 549.647 556.202 549.539L542.378 563.15C540.228 565.334 536.644 569.695 533.311 569.669C532.074 569.659 531.191 569.296 530.39 568.31C527.717 565.022 528.954 554.612 529.005 550.274C524.66 548.38 520.83 546.569 517.401 543.171C510.621 536.454 509.873 528.147 509.824 519.147C509.765 508.404 510.388 498.314 518.46 490.281C527.775 481.011 540.22 482.733 552.207 482.768Z"/>
	<path fill="#3C9DCB" d="M530.019 500.57Q542.898 500.388 555.778 500.384C561.116 500.364 567.266 499.777 572.488 500.934C573.326 501.961 573.725 502.632 573.706 504.007C573.684 505.683 573.524 506.747 572.439 507.984L545.512 508.048C540.377 508.059 534.801 508.515 529.736 507.671C528.772 506.805 528.323 506.348 528.31 504.982C528.293 503.159 528.879 501.924 530.019 500.57Z"/>
	<path fill="#3C9DCB" d="M529.488 519.276C532.272 518.071 559.554 517.778 562.818 518.796C563.431 518.988 564.012 519.39 564.557 519.717C565.024 521.734 564.985 523.641 564.092 525.512C563.53 525.947 563.228 526.348 562.508 526.437C557.73 527.031 531.223 527.738 528.316 525.003C527.73 524.452 527.915 523.428 527.934 522.675C527.974 521.076 528.346 520.366 529.488 519.276Z"/>
	<path fill="#0D3B56" d="M200.685 723.182C202.767 723.046 204.825 722.984 206.911 723.075C216.335 723.487 225.861 726.63 232.268 733.853C241.676 744.457 241.659 758.632 240.984 771.962C223.535 771.93 205.576 772.82 188.186 771.665C189.097 776.605 189.858 781.09 193.061 785.184C196.753 789.901 202.102 792.264 207.96 792.882C219.099 794.057 230.47 789.594 239.025 782.702C240.145 784.695 239.336 796.592 239.305 799.649C233.316 805.32 224.548 808.134 216.543 809.359C204.014 811.276 190.777 810.219 180.346 802.449C171.066 795.538 166.836 785.797 165.31 774.564C163.637 762.243 165.853 747.359 173.672 737.353C180.443 728.689 190.007 724.504 200.685 723.182ZM188.417 758.066Q195.644 757.812 202.875 757.929L218.77 757.987C218.204 752.32 217.946 745.481 213.019 741.669C210.488 739.712 207.215 739.082 204.08 739.118C199.166 739.829 194.913 741.2 191.878 745.439C189.256 749.1 188.451 753.659 188.417 758.066Z"/>
	<path fill="#0D3B56" d="M644.161 722.726C646.022 722.643 647.911 722.791 649.769 722.901C658.679 723.428 666.911 726.399 672.934 733.301C682.053 743.752 682.15 758.09 681.209 771.142C663.792 770.842 646.318 771.082 628.897 771.122C629.42 774.989 630.015 778.653 631.922 782.134C634.556 786.943 639.021 790.199 644.27 791.648C657.005 795.163 668.627 789.113 679.321 783.067L679.926 783.433L679.762 784.758C679.264 790.176 680.64 797.37 676.83 801.817C672.361 807.032 659.627 808.841 653.11 809.481C640.835 810.686 628.388 808.765 618.72 800.607C610.183 793.402 606.109 783.303 605.214 772.349C604.18 759.691 606.914 745.906 615.371 736.077C623.052 727.149 632.727 723.628 644.161 722.726ZM629.137 756.723L645.943 756.816L659.189 756.699C658.67 751.44 658.415 745.281 653.991 741.621C650.691 738.89 646.921 738.963 642.896 739.109C638.456 740.167 635.111 741.791 632.643 745.802C630.605 749.115 629.853 752.956 629.137 756.723Z"/>
	<path fill="#E8484A" d="M905.837 691.759C914.643 692.161 923.55 691.911 932.367 691.931Q953.095 692.082 973.823 691.93C973.54 698.694 973.651 705.498 973.64 712.27C958.882 712.412 944.096 712.307 929.337 712.231C929.622 721.659 929.438 731.128 929.409 740.56C942.057 740.746 954.715 740.426 967.362 740.719C967.602 747.459 967.426 754.261 967.426 761.008L929.164 760.941C930.262 776.522 929.168 792.49 929.332 808.121C921.677 808.078 913.657 807.626 906.057 808.466C905.532 769.572 906.323 730.655 905.837 691.759Z"/>
	<path fill="#0D3B56" d="M278.273 723.616C289.864 722.646 302.423 723.371 312.504 729.716C311.726 736.033 311.974 742.466 311.976 748.821C305.643 744.789 292.109 739.635 284.613 740.182C281.471 740.411 276.822 741.629 274.768 744.21C273.657 745.605 272.906 747.848 273.239 749.626C274.625 757.003 300.313 758.02 309.025 764.976C313.375 768.45 315.684 773.143 316.2 778.649C316.842 785.504 315.586 794.372 311.051 799.775C305.51 806.378 296.772 809.092 288.45 809.678C276.269 810.793 264.438 808.79 254.097 802.08Q253.615 792.957 253.451 783.822C263.74 789.143 275.629 794.046 287.49 791.488C290.031 790.94 292.281 789.679 293.675 787.418C294.563 785.978 294.656 784.225 294.267 782.609C292.606 775.71 276.966 774.46 271.255 772.857C267.962 771.933 264.714 770.619 261.821 768.78C257.15 765.81 253.9 761.583 252.738 756.128C251.298 749.37 252.515 740.885 256.49 735.197C261.695 727.748 269.843 725.236 278.273 723.616Z"/>
	<path fill="#0D3B56" d="M364.306 723.207C375.434 722.257 385.395 725.345 394.308 731.876Q393.912 742.182 394.19 752.491C389.246 749.086 384.272 745.644 378.55 743.673C372.351 741.537 365.362 741.479 359.449 744.571C354.627 747.093 351.596 751.642 350.174 756.807C348.002 764.691 348.076 775.284 352.28 782.511C354.806 786.854 358.876 789.517 363.734 790.609C374.075 792.935 384.718 789.243 393.336 783.66L394.287 783.69Q393.976 793.306 394.018 802.926Q391.538 804.291 388.936 805.409Q386.335 806.526 383.637 807.386Q380.94 808.246 378.171 808.839Q375.403 809.432 372.59 809.754C361.081 811.059 348.75 808.658 339.635 801.221C330.885 794.082 326.864 784.137 325.838 773.078C324.666 760.452 326.517 747.151 334.974 737.224C342.66 728.201 352.704 724.144 364.306 723.207Z"/>
	<path fill="#0D3B56" d="M453.611 723.222C455.969 722.89 458.642 723.108 461.038 723.081C461.329 730.731 461.103 738.401 461.38 746.059C458.292 745.268 455.105 744.614 451.909 744.513C443.643 744.25 438.13 748.023 432.38 753.39C431.693 761.202 432.06 769.247 432.078 777.09C432.101 787.395 431.926 797.751 432.478 808.043L410.054 808.08C409.129 799.098 409.936 789.174 409.938 780.094L409.982 725.512C417.209 725.58 425.254 726.225 432.346 724.862L432.116 735.135C438.738 728.412 443.757 724.014 453.611 723.222Z"/>
	<path fill="#0D3B56" d="M472.956 725.495C480.455 726.036 488.027 725.88 495.544 725.891L495.654 807.966C488.106 808.229 480.545 807.865 472.987 808.1L472.956 725.495Z"/>
	<path fill="#517C98" d="M195.494 351.001C194.042 346.925 193.009 342.535 195.075 338.435C196.309 335.985 198.561 334.218 201.171 333.423C204.456 332.422 208.054 333.054 210.967 334.804C213.581 336.375 215.519 338.803 216.154 341.815C216.833 345.036 215.933 348.919 214.023 351.587C212.127 354.233 208.915 355.52 205.781 355.947C204.417 356.133 203.043 356.18 201.668 356.191C196.453 362.866 189.205 368.239 184.75 375.406C190.943 381.697 196.659 388.307 202.251 395.133C206.101 394.356 211.307 394.202 214.776 396.331C217.426 397.956 219.595 400.67 220.242 403.738C220.953 407.103 220.319 411.116 218.426 414.007C216.563 416.854 213.517 418.576 210.188 419.095Q209.544 419.196 208.893 419.233Q208.242 419.269 207.59 419.24Q206.939 419.212 206.293 419.118Q205.648 419.024 205.015 418.867Q204.382 418.709 203.768 418.489Q203.154 418.269 202.566 417.989Q201.977 417.709 201.419 417.372Q200.861 417.034 200.339 416.643C197.615 414.588 195.926 411.618 195.647 408.208C195.445 405.736 195.857 403.385 197.022 401.191C190.743 394.639 183.033 387.217 178.342 379.451Q164.066 379.287 149.791 379.573C144.938 379.639 139.435 380.189 134.661 379.539C136.859 377.748 147.294 378.89 150.587 378.883L147.479 377.793C146.566 377.479 145.549 377.252 144.879 376.496C144.095 375.612 143.593 373.902 143.812 372.748C143.955 371.998 144.484 371.839 145.051 371.413C141.108 369.392 134.29 371.992 129.691 370.827C129.378 370.748 129.069 370.651 128.759 370.563C145.056 369.729 161.681 370.315 177.973 370.981C183.076 363.619 189.182 357.326 195.494 351.001Z"/>
	<path fill="#0D3B56" d="M521.715 380.096C538.723 379.298 556.054 379.966 573.097 379.967C582.239 379.968 595.003 379.104 603.733 380.133C605.749 380.371 607.377 381.086 608.546 382.798C609.473 384.156 609.501 386.044 609.145 387.584C608.528 390.25 607.489 391.376 605.176 392.748Q576.837 392.439 548.496 392.593C540.635 392.628 532.49 393.339 524.657 392.778C522.337 392.612 520.251 392.348 518.719 390.387C517.526 388.861 517.637 386.554 518.051 384.784C518.619 382.358 519.675 381.418 521.715 380.096Z"/>
	<path fill="#0D3B56" d="M565.943 406.13C574.632 407.019 584.157 406.206 592.938 406.217C598.213 406.224 608.84 405.112 612.49 409.628C613.311 410.644 613.641 411.609 613.429 412.914C613.071 415.122 610.983 417.57 609.294 418.924C600.37 419.937 590.739 419.138 581.746 419.111C576.689 419.095 571.474 419.669 566.45 419.238C564.819 419.099 563.128 418.753 561.729 417.859C560.402 417.01 559.51 415.715 559.275 414.137C559.008 412.342 559.689 410.277 560.741 408.828C562.109 406.945 563.75 406.546 565.943 406.13Z"/>
	<path fill="#0D3B56" d="M564.015 353.056C571.244 352.502 578.725 352.881 585.986 352.875C592.24 352.87 599.025 352.364 605.212 353.123C607.311 353.381 609.04 353.652 610.326 355.483C611.485 357.133 611.858 359.353 611.283 361.294C610.645 363.45 608.938 364.54 607.14 365.674C605.369 365.958 603.533 366.001 601.74 366.017L578.417 366.107C573.976 366.115 569.043 366.525 564.68 365.72C563.355 365.476 562.565 365.132 561.621 364.108C560.206 362.572 559.85 360.087 560.152 358.099C560.543 355.537 562.019 354.452 564.015 353.056Z"/>
	<path fill="#0D3B56" d="M482.175 686.674C485.877 686.849 489.057 686.996 492.192 689.263C495.073 691.347 496.796 694.434 497.346 697.923C497.887 701.355 497.184 704.975 495.012 707.737C492.358 711.113 488.769 712.227 484.68 712.831C481.65 712.785 478.627 712.44 475.979 710.85C473.011 709.066 471.014 706.155 470.3 702.782C469.517 699.082 470.234 695.002 472.476 691.924C474.954 688.52 478.143 687.28 482.175 686.674Z"/>
</svg>
